<svg id="Capa_1" enable-background="new 0 0 511.994 511.994" height="512" viewBox="0 0 511.994 511.994" width="512" xmlns="http://www.w3.org/2000/svg"><g><g><path d="m225.815 434.6c-4.143 0-7.5 3.358-7.5 7.5v62.394c0 4.142 3.357 7.5 7.5 7.5s7.5-3.358 7.5-7.5v-62.394c0-4.142-3.358-7.5-7.5-7.5z"/><path d="m400.593 210.513c1.393 0 2.79-.028 4.186-.083 49.82-1.978 91.736-39.189 99.667-88.48.658-4.089-2.123-7.938-6.213-8.596-4.093-.661-7.938 2.124-8.596 6.213-6.802 42.269-42.74 74.179-85.454 75.875-15.81.625-31.554-2.903-45.495-10.212-1.074-.563-2.27-.857-3.482-.857h-33.8v-33.8c0-1.213-.294-2.408-.857-3.482-7.309-13.941-10.84-29.673-10.212-45.496 1.868-47.069 40.216-85.086 87.303-86.549 44.005-1.373 82.379 28.845 91.268 71.837.838 4.056 4.807 6.664 8.863 5.826 4.057-.839 6.665-4.807 5.826-8.863-10.144-49.059-53.189-83.846-103.082-83.846-1.107 0-2.228.017-3.343.052-54.918 1.706-99.645 46.048-101.824 100.947-.295 7.423.208 14.828 1.456 22.089-.299-.01-.597-.031-.896-.031-3.753 0-7.314.823-10.526 2.284v-80.732c0-10.112-8.227-18.339-18.339-18.339h-134.216c-4.143 0-7.5 3.358-7.5 7.5s3.357 7.5 7.5 7.5h134.215c1.841 0 3.339 1.498 3.339 3.339v63.513c-3.211-1.46-6.774-2.276-10.525-2.276-14.075 0-25.526 11.451-25.526 25.526v9.592c-3.211-1.459-6.774-2.272-10.525-2.272-14.075 0-25.525 11.451-25.525 25.526v.047h-68.666c-1.989 0-3.896.79-5.303 2.197l-18.258 18.256-18.256-18.256c-1.407-1.407-3.314-2.197-5.304-2.197h-29.403c-1.842 0-3.34-1.498-3.34-3.339v-116.317c0-1.841 1.498-3.339 3.34-3.339h44.342c4.143 0 7.5-3.358 7.5-7.5s-3.357-7.5-7.5-7.5h-44.342c-10.112 0-18.34 8.227-18.34 18.339v116.316c0 10.112 8.228 18.339 18.34 18.339h26.296l17.53 17.53c2.439 2.44 5.685 3.785 9.136 3.785s6.696-1.344 9.135-3.784l17.532-17.531h65.56v27.617c-4.574-1.98-9.612-3.083-14.904-3.083-9.205 0-16.854 7.198-17.413 16.387-.003.046-.005.092-.007.138l-1.29 30.456c-1.106-.156-2.227-.239-3.36-.239-3.166 0-6.189.622-8.955 1.749-1.393-11.799-11.456-20.981-23.624-20.981-3.419 0-6.671.725-9.611 2.028-2.737-10.118-11.997-17.582-22.969-17.582-13.117 0-23.789 10.672-23.789 23.79v7.575c-2.721-1.085-5.687-1.683-8.79-1.683-13.117 0-23.789 10.672-23.789 23.79v37.48c-3.949-1.564-8.247-2.433-12.746-2.433-8.7 0-15.93 6.803-16.457 15.487-.003.046-.005.091-.007.137l-3.066 72.431c-.392 9.233 1.536 18.509 5.573 26.824l10.779 22.203c4.086 8.414 11.184 14.79 19.987 17.952l14.043 5.044v40.142c0 4.142 3.357 7.5 7.5 7.5s7.5-3.358 7.5-7.5v-36.52h28.846c4.143 0 7.5-3.358 7.5-7.5s-3.357-7.5-7.5-7.5h-31.15l-21.668-7.783c-5.094-1.83-9.201-5.519-11.564-10.387l-10.779-22.203c-2.956-6.088-4.367-12.878-4.081-19.638l3.063-72.333c.066-.764.71-1.357 1.481-1.357 10.886 0 19.741 8.856 19.741 19.741v41.807c0 4.142 3.357 7.5 7.5 7.5h6.738c11.732 0 22.368 6.002 28.45 16.057 2.143 3.544 6.754 4.677 10.299 2.536 3.544-2.144 4.68-6.755 2.535-10.299-8.69-14.368-23.797-23.032-40.522-23.288v-34.313c0-7.834-2.609-15.068-7-20.886 0-.031.005-.061.005-.092v-48.81c0-4.847 3.942-8.79 8.789-8.79s8.79 3.943 8.79 8.79v83.571c0 4.142 3.357 7.5 7.5 7.5s7.5-3.358 7.5-7.5v-113.251c0-2.348.914-4.555 2.574-6.215s3.867-2.574 6.216-2.574c2.348 0 4.555.914 6.215 2.574s2.574 3.867 2.574 6.215v113.94c0 4.142 3.357 7.5 7.5 7.5s7.5-3.358 7.5-7.5c0 0 0-98.048 0-98.388 0-4.846 3.943-8.789 8.79-8.789s8.789 3.943 8.789 8.79v96.142c0 4.142 3.357 7.5 7.5 7.5s7.5-3.358 7.5-7.5c0 0 0-76.57 0-76.91 0-4.847 3.943-8.79 8.79-8.79.936 0 1.846.148 2.717.431l-1.461 34.502c-.427 10.085 1.678 20.218 6.087 29.301l1.446 2.979v73.246c0 11.068-3.674 22.027-10.345 30.858l-11.042 14.618c-.983 1.302-1.516 2.889-1.516 4.521v48.498c0 4.142 3.357 7.5 7.5 7.5s7.5-3.358 7.5-7.5v-45.984l9.526-12.612c8.626-11.419 13.376-25.589 13.376-39.899v-44.484c4.42 5.573 10.307 9.832 17.152 12.291l16.068 5.772v27.127c0 4.142 3.357 7.5 7.5 7.5s7.5-3.358 7.5-7.5v-23.355h32.72c4.143 0 7.5-3.358 7.5-7.5s-3.357-7.5-7.5-7.5h-34.608l-24.109-8.66c-5.834-2.095-10.538-6.32-13.245-11.896l-11.93-24.569c-3.328-6.856-4.917-14.503-4.595-22.115l3.39-80.059c.102-1.266 1.163-2.251 2.438-2.251 12.486 0 22.645 10.159 22.645 22.645v46.263c0 4.142 3.357 7.5 7.5 7.5h7.457c13.266 0 25.29 6.786 32.165 18.153 2.145 3.545 6.756 4.678 10.3 2.536 3.544-2.144 4.68-6.755 2.536-10.299-9.608-15.886-26.414-25.375-44.958-25.391v-38.763c0-8.579-2.89-16.492-7.74-22.829v-54.397c0-5.804 4.722-10.526 10.525-10.526s10.525 4.722 10.525 10.526v92.479c0 4.142 3.357 7.5 7.5 7.5s7.5-3.358 7.5-7.5v-125.325c0-5.804 4.722-10.526 10.526-10.526s10.525 4.722 10.525 10.526v126.085c0 4.142 3.357 7.5 7.5 7.5s7.5-3.358 7.5-7.5c0 0 0-108.534 0-108.874.001-5.804 4.723-10.526 10.526-10.526 1.781 0 3.508.468 5.051 1.315 1.522 4.446 3.334 8.796 5.447 13.01l.027 102.59c0 4.142 3.357 7.5 7.5 7.5s7.5-3.358 7.5-7.5v-55.601h21.052v51.641c-5.197 4.367-8.508 10.91-8.508 18.214v37.48c-3.949-1.564-8.247-2.433-12.746-2.433-8.7 0-15.93 6.803-16.457 15.487-.003.046-.005.091-.007.137l-3.066 72.431c-.392 9.233 1.536 18.509 5.573 26.824l9.886 20.364c-.006.126-.019.25-.019.378v64.6c0 4.142 3.357 7.5 7.5 7.5s7.5-3.358 7.5-7.5v-47.937c1.863 1.082 3.832 2.008 5.899 2.751l14.043 5.044v40.142c0 4.142 3.357 7.5 7.5 7.5s7.5-3.358 7.5-7.5v-36.52h28.847c4.143 0 7.5-3.358 7.5-7.5s-3.357-7.5-7.5-7.5h-31.15l-21.668-7.783c-5.094-1.83-9.201-5.519-11.564-10.387l-10.779-22.203c-2.956-6.088-4.367-12.878-4.081-19.638l3.063-72.333c.066-.764.71-1.357 1.481-1.357 10.886 0 19.741 8.856 19.741 19.741v41.807c0 4.142 3.357 7.5 7.5 7.5h6.739c11.732 0 22.367 6.002 28.449 16.057 2.143 3.544 6.754 4.677 10.299 2.536 3.544-2.144 4.68-6.755 2.535-10.299-8.69-14.368-23.796-23.033-40.522-23.288v-34.313c0-7.834-2.609-15.068-7-20.886 0-.031.005-.061.005-.092v-48.81c0-4.847 3.942-8.79 8.789-8.79s8.79 3.943 8.79 8.79v83.571c0 4.142 3.357 7.5 7.5 7.5s7.5-3.358 7.5-7.5v-113.252c0-2.348.914-4.555 2.574-6.215s3.867-2.574 6.216-2.574c2.348 0 4.555.914 6.215 2.574s2.574 3.867 2.574 6.215v113.94c0 4.142 3.357 7.5 7.5 7.5s7.5-3.358 7.5-7.5c0 0 0-98.048 0-98.387.001-4.847 3.943-8.79 8.79-8.79s8.789 3.943 8.789 8.79v96.142c0 4.142 3.357 7.5 7.5 7.5s7.5-3.358 7.5-7.5c0 0 0-76.57 0-76.91 0-4.847 3.943-8.79 8.79-8.79s8.789 3.943 8.789 8.79v131.668c0 11.068-3.674 22.027-10.345 30.858l-11.042 14.618c-.983 1.302-1.516 2.889-1.516 4.521v48.498c0 4.142 3.357 7.5 7.5 7.5s7.5-3.358 7.5-7.5v-45.983l9.526-12.612c8.626-11.419 13.376-25.589 13.376-39.899v-131.668c0-13.118-10.672-23.79-23.789-23.79-3.166 0-6.189.622-8.955 1.749-1.393-11.799-11.456-20.981-23.624-20.981-3.418 0-6.671.725-9.611 2.029-2.737-10.118-11.997-17.583-22.968-17.583-13.118 0-23.79 10.672-23.79 23.79v7.575c-2.721-1.085-5.687-1.683-8.79-1.683-.094 0-.187.006-.281.007v-44.144c13.514 6.058 28.227 9.214 43.11 9.213z"/><path d="m340.331 105.256c0 33.188 27.001 60.189 60.189 60.189s60.188-27 60.188-60.189-27-60.189-60.188-60.189-60.189 27-60.189 60.189zm52.69-44.555v37.514l-33.475 26.065c-2.698-5.787-4.214-12.23-4.214-19.024-.001-22.362 16.329-40.971 37.689-44.555zm-24.954 75.954 24.954-19.43v32.586c-9.715-1.63-18.384-6.368-24.954-13.156zm39.954 13.156v-32.586l24.953 19.43c-6.57 6.788-15.239 11.526-24.953 13.156zm37.688-44.555c0 6.794-1.517 13.238-4.214 19.024l-33.474-26.065v-37.514c21.358 3.584 37.688 22.193 37.688 44.555z"/><path d="m252.523 68.605c0-4.142-3.357-7.5-7.5-7.5h-169.914c-4.143 0-7.5 3.358-7.5 7.5s3.357 7.5 7.5 7.5h169.914c4.142 0 7.5-3.357 7.5-7.5z"/><path d="m233.256 96.237c0-4.142-3.357-7.5-7.5-7.5h-150.647c-4.143 0-7.5 3.358-7.5 7.5s3.357 7.5 7.5 7.5h150.647c4.143 0 7.5-3.358 7.5-7.5z"/><path d="m75.109 116.369c-4.143 0-7.5 3.358-7.5 7.5s3.357 7.5 7.5 7.5h57.938c4.143 0 7.5-3.358 7.5-7.5s-3.357-7.5-7.5-7.5z"/></g></g></svg>